<svg xmlns="http://www.w3.org/2000/svg" width="24.24" height="19.728" viewBox="0 0 24.24 19.728">
    <g id="Gruppe_116" transform="translate(-623.003 -325.598)">
        <path id="Pfad_21" d="M636.077,334h-7.5a4.19,4.19,0,0,0-2.027.523c-1.6.883-4.239,2.8-2.405,5.137a4.081,4.081,0,0,0,3.663,1.475c3.323-.365,10.931-1.011,14.779.195,5.011,1.571,5.79,6.108.688,6.457a88.15,88.15,0,0,1-10.337,0" transform="translate(0 -5.221)" fill="#fff" stroke="#0062ff" stroke-miterlimit="10" stroke-width="1"/>
        <path id="Pfad_22" d="M659.551,325.979l3.3,2.8-3.3,2.8" transform="translate(-23.456)" fill="#fff" stroke="#0062ff" stroke-miterlimit="10" stroke-width="1"/>
        <path id="Pfad_23" d="M653.151,372.088l-2.6-2.207,2.6-2.2" transform="translate(-17.597 -27.143)" fill="#fff" stroke="#0062ff" stroke-miterlimit="10" stroke-width="1"/>
    </g>
</svg>
