<svg xmlns="http://www.w3.org/2000/svg" width="72.865" height="54.284" viewBox="0 0 72.865 54.284">
    <g id="Gruppe_159" transform="translate(-229.366 -320.272)">
        <path id="Pfad_34" d="M265.988,334h-18.2a10.165,10.165,0,0,0-4.918,1.268c-3.878,2.142-10.285,6.8-5.835,12.464a9.9,9.9,0,0,0,8.887,3.579c8.063-.886,26.521-2.454,35.857.473,12.158,3.811,14.047,14.819,1.67,15.666a213.856,213.856,0,0,1-25.078,0" transform="translate(-0.852 -1.731)" fill="#fff" stroke="#0062ff" stroke-miterlimit="10" stroke-width="1"/>
        <path id="Pfad_35" d="M271.551,325.979l8,6.791-8,6.786" transform="translate(-6.371 -0.502)" fill="#fff" stroke="#0062ff" stroke-miterlimit="10" stroke-width="1"/>
        <path id="Pfad_36" d="M268.859,378.379l-6.308-5.354,6.308-5.349" transform="translate(-4.993 -6.889)" fill="#fff" stroke="#0062ff" stroke-miterlimit="10" stroke-width="1"/>
        <path id="Pfad_37" d="M299.968,336.89l.553,8.671-6.267-8.671-5.161,1.577,2.038-7.883V322.7l3.676,7.24,7-7.24-3.585,7.883,11.326,3.547Z" transform="translate(-9.059)" fill="#fff" stroke="#0062ff" stroke-miterlimit="10" stroke-width="1"/>
        <g id="Gruppe_158" transform="translate(229.958 353.57)">
            <path id="Pfad_38" d="M242.235,363.888s-4.884-6.531-9.931,0-1.484,16.033,6.234,16.033,8.907-2.375,8.907-3.563,3.787-10.094,1-12.172S242.235,363.888,242.235,363.888Z" transform="translate(-229.958 -359.434)" fill="#fff" stroke="#0062ff" stroke-miterlimit="10" stroke-width="1"/>
            <path id="Pfad_39" d="M244.456,363.607s.727-1.187,0-4.453" transform="translate(-232.179 -359.154)" fill="#fff" stroke="#0062ff" stroke-miterlimit="10" stroke-width="1"/>
        </g>
    </g>
</svg>
