<svg xmlns="http://www.w3.org/2000/svg" width="33.079" height="15.007" viewBox="0 0 33.079 15.007">
    <g id="Gruppe_113" transform="translate(-629.472 -55.904)">
        <g id="Gruppe_107" transform="translate(630 56.388)">
            <path id="Pfad_16" d="M630,67.846s1.517,5.317,10.618,5.317,9.1-2.427,13.955-1.213,8.083.75,7.379-1.445S660.034,67.7,657,67.1s-7.281-4.247-12.135-3.64S632.124,62.529,630,67.846Z" transform="translate(-630 -59.141)" fill="#fff" stroke="#0062ff" stroke-miterlimit="10" stroke-width="1"/>
            <path id="Pfad_17" d="M630,60.846s1.517,5.317,10.618,5.317,9.1-2.427,13.955-1.213,8.083.75,7.379-1.445S660.034,60.7,657,60.1s-7.281-4.247-12.135-3.64S632.124,55.529,630,60.846Z" transform="translate(-630 -56.388)" fill="#fff" stroke="#0062ff" stroke-miterlimit="10" stroke-width="1"/>
            <line id="Linie_16" y1="4.459" transform="translate(0 4.247)" fill="#fff" stroke="#0062ff" stroke-miterlimit="10" stroke-width="1"/>
            <line id="Linie_17" y1="3.409" transform="translate(31.952 7.956)" fill="#fff" stroke="#0062ff" stroke-miterlimit="10" stroke-width="1"/>
            <path id="Pfad_18" d="M640.892,61.5s-3.622-.068-2.114,1.786,4.566,2.536,5.161,1.588S644.3,61.5,642.6,61.5Z" transform="translate(-633.307 -58.398)" fill="#fff" stroke="#0062ff" stroke-miterlimit="10" stroke-width="1"/>
        </g>
    </g>
</svg>
