<?xml version="1.0" encoding="utf-8"?>
<!-- Generator: Adobe Illustrator 27.5.0, SVG Export Plug-In . SVG Version: 6.00 Build 0)  -->
<svg version="1.1" id="Layer_1" xmlns="http://www.w3.org/2000/svg" xmlns:xlink="http://www.w3.org/1999/xlink" x="0px" y="0px"
	 viewBox="0 0 800 800" style="enable-background:new 0 0 800 800;" xml:space="preserve">
<style type="text/css">
	.st0{fill:#0062FF;}
	.st1{fill:#FFFFFF;stroke:#0062FF;stroke-width:4;stroke-miterlimit:10;}
	.st2{fill:#FFFFFF;}
</style>
<g>
	<path class="st0" d="M687.37,799.7H112.31C50.2,799.7-0.16,749.35-0.16,687.23V112.18C-0.16,50.06,50.2-0.3,112.31-0.3h575.05
		c62.12,0,112.47,50.36,112.47,112.47v575.05C799.84,749.35,749.48,799.7,687.37,799.7z"/>
</g>
<g>
	<g>
		<polygon class="st1" points="324.6,193.4 309.56,343.71 224.39,343.71 209.36,193.4 		"/>
	</g>
	<g>
		<path class="st2" d="M402.26,447.07c-76.12,0-147.66-7.55-201.45-21.26c-52.2-13.31-82.14-31.36-82.14-49.54
			c0-18.18,29.94-36.23,82.14-49.54c53.78-13.71,125.32-21.26,201.45-21.26s147.66,7.55,201.45,21.26
			c52.2,13.31,82.14,31.36,82.14,49.54c0,18.17-29.94,36.23-82.14,49.54C549.92,439.52,478.38,447.07,402.26,447.07z"/>
		<path class="st0" d="M402.25,307.48c75.96,0,147.32,7.53,200.95,21.2c25.85,6.59,46.08,14.22,60.13,22.69
			c16.95,10.21,20.51,19.18,20.51,24.91c0,10.37-11.15,19.27-20.51,24.91c-14.05,8.47-34.28,16.1-60.13,22.69
			c-53.63,13.67-124.99,21.2-200.95,21.2s-147.32-7.53-200.95-21.2c-25.85-6.59-46.08-14.22-60.13-22.69
			c-16.95-10.21-20.51-19.18-20.51-24.91c0-10.37,11.15-19.27,20.51-24.91c14.05-8.47,34.28-16.1,60.13-22.69
			C254.93,315.01,326.3,307.48,402.25,307.48 M402.25,303.48c-157.72,0-285.59,32.59-285.59,72.8s127.86,72.8,285.59,72.8
			s285.59-32.59,285.59-72.8S559.98,303.48,402.25,303.48L402.25,303.48z"/>
	</g>
	<g>
		<path class="st1" d="M271.99,359.92c0,0,12.53,43.91,87.68,43.91s75.15-20.04,115.24-10.02s66.75,6.19,60.93-11.93
			c-5.82-18.13-15.84-23.14-40.89-28.15c-25.05-5.01-60.12-35.07-100.21-30.06C354.66,328.68,289.52,316.02,271.99,359.92z"/>
		<path class="st1" d="M271.99,324.85c0,0,12.53,43.91,87.68,43.91s75.15-20.04,115.24-10.02s66.75,6.19,60.93-11.93
			c-5.82-18.13-15.84-23.14-40.89-28.15c-25.05-5.01-60.12-35.07-100.21-30.06C354.66,293.61,289.52,280.94,271.99,324.85z"/>
		<line class="st1" x1="271.99" y1="359.92" x2="271.99" y2="323.11"/>
		<line class="st1" x1="535.83" y1="381.88" x2="535.83" y2="353.73"/>
		<path class="st1" d="M334.62,313.65c0,0-29.91-0.56-17.46,14.75s37.71,20.94,42.61,13.12c4.91-7.83,3.01-27.87-11.07-27.87
			C334.62,313.64,334.62,313.65,334.62,313.65z"/>
	</g>
</g>
<g>
	<path class="st2" d="M219.65,517.72v1.86h25.82v9.43h-25.82v61.7h-10.51v-61.7h-19.79v-9.43h19.79v-1.86
		c0-23.04,11.13-34.02,35.1-34.02c2.94,0,5.26,0.15,7.27,0.31v9.9c-2.17-0.31-4.02-0.31-8.04-0.31
		C225.83,493.6,219.65,499.78,219.65,517.72z"/>
	<path class="st2" d="M276.7,557.46v-10.67c0-23.5,12.99-35.57,32.47-35.57h1.24c19.79,0,32.47,12.06,32.47,35.57v10.67
		c0,23.5-12.68,35.41-32.01,35.41h-2.17C289.38,592.87,276.7,580.96,276.7,557.46z M332.37,557.92v-11.91
		c0-16.39-8.04-24.9-22.58-24.9c-14.54,0-22.58,8.5-22.58,24.9v11.91c0,16.39,8.04,24.9,22.58,24.9
		C324.33,582.82,332.37,574.32,332.37,557.92z"/>
	<path class="st2" d="M369.17,557.46v-10.67c0-23.5,12.99-35.57,32.47-35.57h1.24c19.79,0,32.47,12.06,32.47,35.57v10.67
		c0,23.5-12.68,35.41-32.01,35.41h-2.17C381.84,592.87,369.17,580.96,369.17,557.46z M424.83,557.92v-11.91
		c0-16.39-8.04-24.9-22.58-24.9c-14.54,0-22.58,8.5-22.58,24.9v11.91c0,16.39,8.04,24.9,22.58,24.9
		C416.79,582.82,424.83,574.32,424.83,557.92z"/>
	<path class="st2" d="M462.87,557.61v-10.98c0-23.66,10.21-35.57,28.14-35.57c14.23,0,22.11,7.42,24.74,22.73h0.62l-0.46-15.93
		v-32.32h10.51v105.15h-10.51v-4.64l0.46-15.77h-0.62c-2.63,15.15-10.83,22.73-25.05,22.73
		C472.76,593.03,462.87,581.12,462.87,557.61z M516.22,554.99v-5.88c0-18.09-7.42-27.99-22.27-27.99
		c-13.45,0-19.95,8.04-19.95,24.74v12.37c0,16.7,6.49,24.74,19.95,24.74C508.79,582.97,516.22,573.08,516.22,554.99z"/>
	<path class="st2" d="M582.24,590.71l-31.08-77.32h11.29l24.9,63.86h0.62l24.28-63.86h10.98l-39.9,100.51h-10.98L582.24,590.71z"/>
</g>
</svg>
